<?xml version="1.0" encoding="UTF-8" standalone="no"?>
<!DOCTYPE svg PUBLIC "-//W3C//DTD SVG 1.1//EN" "http://www.w3.org/Graphics/SVG/1.1/DTD/svg11.dtd">
<svg width="100%" height="100%" viewBox="0 0 1696 530" version="1.1" xmlns="http://www.w3.org/2000/svg" xmlns:xlink="http://www.w3.org/1999/xlink" xml:space="preserve" xmlns:serif="http://www.serif.com/" style="fill-rule:evenodd;clip-rule:evenodd;stroke-linejoin:round;stroke-miterlimit:2;">
    <g transform="matrix(4.16667,0,0,4.16667,0,0)">
        <path d="M125.658,63.863L100.272,89.25L114.146,89.25L139.533,63.863L114.15,38.481L100.276,38.481L125.658,63.863Z" style="fill:rgb(0,94,171);fill-rule:nonzero;"/>
        <path d="M52.516,38.481L76.396,14.601L94.446,32.651L108.32,32.651L76.395,0.726L38.64,38.481L52.516,38.481Z" style="fill:rgb(0,147,208);fill-rule:nonzero;"/>
        <path d="M94.441,95.08L76.396,113.124L52.52,89.25L38.643,89.25L76.395,127L108.316,95.08L94.441,95.08Z" style="fill:rgb(0,147,208);fill-rule:nonzero;"/>
        <path d="M25.385,71.085C25.385,73.749 25.503,76.349 25.85,77.911L17.928,77.911L17.407,75.075L17.233,75.075C15.383,77.332 12.493,78.545 9.136,78.545C3.41,78.545 0,74.379 0,69.872C0,62.53 6.591,59.058 16.595,59.058L16.595,58.712C16.595,57.205 15.789,55.07 11.448,55.07C8.555,55.07 5.494,56.054 3.641,57.15L2.022,51.539C3.986,50.442 7.864,48.994 13.013,48.994C22.437,48.994 25.385,54.548 25.385,61.198L25.385,71.085ZM16.885,64.553C12.257,64.553 8.674,65.651 8.674,69.006C8.674,71.259 10.178,72.358 12.142,72.358C14.285,72.358 16.134,70.914 16.712,69.122C16.828,68.658 16.885,68.138 16.885,67.617L16.885,64.553Z" style="fill:rgb(0,147,208);fill-rule:nonzero;"/>
        <path d="M52.353,77.215C50.794,77.969 47.84,78.545 44.488,78.545C35.351,78.545 29.51,72.937 29.51,64.031C29.51,55.759 35.177,48.994 45.701,48.994C48.015,48.994 50.56,49.401 52.41,50.094L51.025,56.628C49.981,56.166 48.421,55.759 46.107,55.759C41.479,55.759 38.475,59.058 38.531,63.686C38.531,68.889 42,71.667 46.282,71.667C48.36,71.667 49.981,71.316 51.31,70.738L52.353,77.215Z" style="fill:rgb(0,147,208);fill-rule:nonzero;"/>
        <path d="M58.329,58.653C58.329,55.126 58.211,52.177 58.1,49.631L65.556,49.631L65.903,53.507L66.078,53.507C67.293,51.655 69.836,48.994 74.637,48.994C78.337,48.994 81.172,50.905 82.389,53.854L82.501,53.854C83.599,52.35 84.814,51.193 86.202,50.386C87.764,49.515 89.496,48.994 91.58,48.994C97.019,48.994 101.122,52.811 101.122,61.257L101.122,77.911L92.563,77.911L92.563,62.586C92.563,58.478 91.233,56.108 88.397,56.108C86.318,56.108 84.927,57.496 84.293,59.174C84.119,59.809 84.002,60.674 84.002,61.37L84.002,77.911L75.446,77.911L75.446,62.064C75.446,58.537 74.173,56.108 71.338,56.108C69.086,56.108 67.755,57.844 67.234,59.228C66.946,59.922 66.887,60.736 66.887,61.486L66.887,77.911L58.329,77.911L58.329,58.653Z" style="fill:rgb(0,147,208);fill-rule:nonzero;"/>
        <path d="M153.886,50.525L148.686,77.907L153.439,77.907L158.64,50.525L153.886,50.525Z" style="fill:rgb(0,94,171);fill-rule:nonzero;"/>
        <path d="M163.718,77.907L165.424,68.766C166.277,64.135 169.04,61.535 171.193,61.535C173.062,61.535 173.671,62.754 173.671,64.379C173.671,65.151 173.549,66.004 173.427,66.735L171.315,77.907L176.027,77.907L178.221,66.41C178.424,65.394 178.587,64.013 178.587,63.119C178.587,59.382 176.352,57.676 173.549,57.676C170.787,57.676 168.268,59.016 166.44,61.698L166.358,61.698L166.765,58.122L162.58,58.122C162.337,59.829 162.052,61.901 161.565,64.257L159.005,77.907L163.718,77.907Z" style="fill:rgb(0,94,171);fill-rule:nonzero;"/>
        <path d="M182.406,65.354L181.715,68.807L191.912,68.807L192.562,65.354L182.406,65.354Z" style="fill:rgb(0,94,171);fill-rule:nonzero;"/>
        <path d="M214.418,73.235C212.956,73.926 210.924,74.292 208.934,74.292C203.531,74.292 201.174,70.838 201.174,66.248C201.174,62.266 202.718,58.813 205.115,56.701C206.984,55.075 209.503,54.182 212.103,54.182C214.5,54.182 216.368,54.669 217.262,55.157L218.643,51.338C217.871,50.81 215.678,50.079 212.671,50.079C208.731,50.079 205.318,51.175 202.474,53.329C198.493,56.294 196.055,61.129 196.055,66.816C196.055,73.926 200.605,78.354 207.715,78.354C210.924,78.354 213.403,77.745 214.865,77.095L214.418,73.235Z" style="fill:rgb(0,94,171);fill-rule:nonzero;"/>
        <path d="M229.693,57.676C222.95,57.676 218.278,63.485 218.278,70.188C218.278,74.901 221.365,78.354 226.362,78.354C233.106,78.354 237.819,72.585 237.819,65.882C237.819,61.494 235.015,57.676 229.693,57.676ZM229.125,61.332C232.009,61.332 232.903,63.851 232.903,65.882C232.903,69.823 230.547,74.698 227.012,74.698C224.615,74.698 223.153,72.788 223.153,70.066C223.153,66.369 225.346,61.332 229.125,61.332Z" style="fill:rgb(0,94,171);fill-rule:nonzero;"/>
        <path d="M251.916,57.676C245.172,57.676 240.5,63.485 240.5,70.188C240.5,74.901 243.587,78.354 248.584,78.354C255.328,78.354 260.041,72.585 260.041,65.882C260.041,61.494 257.238,57.676 251.916,57.676ZM251.347,61.332C254.231,61.332 255.125,63.851 255.125,65.882C255.125,69.823 252.769,74.698 249.234,74.698C246.837,74.698 245.375,72.788 245.375,70.066C245.375,66.369 247.569,61.332 251.347,61.332Z" style="fill:rgb(0,94,171);fill-rule:nonzero;"/>
        <path d="M265.118,85.951L266.702,77.501L266.784,77.501C267.515,77.948 268.896,78.354 270.724,78.354C277.468,78.354 282.262,71.935 282.262,65.029C282.262,61.169 280.271,57.676 276.006,57.676C273.446,57.676 271.009,59.016 269.302,61.372L269.221,61.372L269.668,58.041L265.402,58.041C265.159,60.032 264.712,63.119 264.265,65.476L260.405,85.951L265.118,85.951ZM268.327,68.888C269.181,64.257 271.781,61.535 274.178,61.535C276.493,61.535 277.306,63.566 277.306,65.394C277.306,69.823 274.299,74.698 270.643,74.698C269.262,74.698 268.206,74.332 267.474,73.723L268.327,68.888Z" style="fill:rgb(0,94,171);fill-rule:nonzero;"/>
        <path d="M299.447,73.316C298.025,74.048 296.237,74.617 294.003,74.617C292.134,74.617 290.712,73.926 289.94,72.585C289.493,71.813 289.331,70.473 289.412,69.782C297.05,69.945 302.372,68.32 302.372,63.241C302.372,59.951 299.893,57.676 295.993,57.676C289.168,57.676 284.781,64.176 284.781,70.148C284.781,74.982 287.421,78.354 292.906,78.354C295.303,78.354 297.943,77.785 299.893,76.77L299.447,73.316ZM297.903,63.282C297.903,65.638 294.775,66.329 289.899,66.248C290.468,63.851 292.418,61.21 295.384,61.21C296.887,61.21 297.903,61.982 297.903,63.241L297.903,63.282Z" style="fill:rgb(0,94,171);fill-rule:nonzero;"/>
        <path d="M308.547,77.907L310.05,69.945C310.822,65.719 312.975,62.307 316.347,62.307C316.672,62.307 316.997,62.348 317.241,62.388L318.175,57.757C317.85,57.716 317.485,57.676 317.16,57.676C314.438,57.676 312.284,59.626 310.944,62.307L310.822,62.307C311.025,60.844 311.147,59.463 311.269,58.122L307.166,58.122C306.922,59.91 306.678,62.916 306.15,65.719L303.834,77.907L308.547,77.907Z" style="fill:rgb(0,94,171);fill-rule:nonzero;"/>
        <path d="M334.831,77.907C334.75,75.551 335.075,71.854 335.643,68.888L337.675,58.569C336.172,58.082 333.856,57.676 331.703,57.676C322.481,57.676 317.768,64.866 317.768,71.61C317.768,75.592 320.084,78.354 323.618,78.354C326.137,78.354 328.737,77.095 330.687,73.438L330.809,73.438C330.646,75.145 330.484,76.729 330.443,77.907L334.831,77.907ZM331.337,66.735C330.403,71.773 327.721,74.535 325.528,74.535C323.456,74.535 322.684,72.829 322.684,70.757C322.684,66.248 326.056,61.332 330.443,61.332C331.296,61.332 331.906,61.413 332.393,61.535L331.337,66.735Z" style="fill:rgb(0,94,171);fill-rule:nonzero;"/>
        <path d="M344.541,54.466L343.85,58.122L341.169,58.122L340.478,61.779L343.16,61.779L341.453,70.595C341.128,72.057 341.006,73.154 341.006,74.251C341.006,76.526 342.469,78.354 345.719,78.354C346.856,78.354 348.116,78.192 348.807,77.948L349.253,74.21C348.766,74.292 348.197,74.332 347.628,74.332C346.369,74.332 345.881,73.641 345.881,72.545C345.881,71.732 346.044,70.676 346.206,69.782L347.791,61.779L352.219,61.779L352.95,58.122L348.482,58.122L349.457,53.044L344.541,54.466Z" style="fill:rgb(0,94,171);fill-rule:nonzero;"/>
        <path d="M357.622,77.907L361.4,58.122L356.687,58.122L352.909,77.907L357.622,77.907ZM359.856,55.279C361.44,55.279 362.74,54.182 362.781,52.435C362.781,50.932 361.725,49.875 360.262,49.875C358.719,49.875 357.418,51.054 357.418,52.76C357.418,54.222 358.394,55.279 359.815,55.279L359.856,55.279Z" style="fill:rgb(0,94,171);fill-rule:nonzero;"/>
        <path d="M374.928,57.676C368.185,57.676 363.513,63.485 363.513,70.188C363.513,74.901 366.6,78.354 371.597,78.354C378.341,78.354 383.054,72.585 383.054,65.882C383.054,61.494 380.25,57.676 374.928,57.676ZM374.36,61.332C377.244,61.332 378.138,63.851 378.138,65.882C378.138,69.823 375.782,74.698 372.247,74.698C369.85,74.698 368.388,72.788 368.388,70.066C368.388,66.369 370.581,61.332 374.36,61.332Z" style="fill:rgb(0,94,171);fill-rule:nonzero;"/>
        <path d="M389.797,77.907L391.504,68.766C392.357,64.135 395.119,61.535 397.273,61.535C399.141,61.535 399.751,62.754 399.751,64.379C399.751,65.151 399.629,66.004 399.507,66.735L397.394,77.907L402.107,77.907L404.301,66.41C404.504,65.394 404.666,64.013 404.666,63.119C404.666,59.382 402.432,57.676 399.629,57.676C396.866,57.676 394.348,59.016 392.519,61.698L392.438,61.698L392.844,58.122L388.66,58.122C388.416,59.829 388.132,61.901 387.644,64.257L385.085,77.907L389.797,77.907Z" style="fill:rgb(0,94,171);fill-rule:nonzero;"/>
    </g>
</svg>
