<?xml version="1.0" encoding="UTF-8"?>
<svg fill="#FFFFFF" width="100pt" height="100pt" version="1.1" viewBox="0 0 100 100" xmlns="http://www.w3.org/2000/svg">
 <g>
  <path d="m50 5c-24.812 0-45 20.188-45 45s20.188 45 45 45 45-20.188 45-45-20.188-45-45-45zm0 85c-22.055 0-40-17.945-40-40s17.945-40 40-40 40 17.945 40 40-17.945 40-40 40z"/>
  <path d="m51.77 25.73c-0.97656-0.97656-2.5586-0.97656-3.5352 0l-22.5 22.5c-0.97656 0.97656-0.97656 2.5586 0 3.5352s2.5586 0.97656 3.5352 0l18.23-18.23v36.465c0 1.3828 1.1172 2.5 2.5 2.5s2.5-1.1172 2.5-2.5v-36.465l18.23 18.23c0.49219 0.49219 1.1289 0.73438 1.7695 0.73438s1.2773-0.24219 1.7695-0.73047c0.97656-0.97656 0.97656-2.5586 0-3.5352z"/>
 </g>
</svg>
